<?xml version="1.0" encoding="UTF-8"?>
<svg width="57px" height="39px" viewBox="0 0 57 39" version="1.1" xmlns="http://www.w3.org/2000/svg" xmlns:xlink="http://www.w3.org/1999/xlink">
    <!-- Generator: Sketch 51.3 (57544) - http://www.bohemiancoding.com/sketch -->
    <title>icon1</title>
    <desc>Created with Sketch.</desc>
    <defs></defs>
    <g id="Page-1" stroke="none" stroke-width="1" fill="none" fill-rule="evenodd">
        <g id="Product" transform="translate(-1487.000000, -6179.000000)" fill="#4B448D">
            <g id="design4" transform="translate(-13.000000, 5890.000000)">
                <g id="Group-13" transform="translate(1500.000000, 289.000000)">
                    <path d="M7.10210447,31.9479843 L21.3960998,31.9479843 L21.3960998,28.3791937 L7.10210447,28.3791937 L7.10210447,31.9479843 Z M53.4049524,3.56879057 L3.59504757,3.56879057 L3.59504757,7.13758113 L53.4929431,7.13758113 L53.4929431,3.56879057 L53.4049524,3.56879057 Z M53.4049524,14.1895969 L3.59504757,14.1895969 L3.59504757,35.4294268 L53.4929431,35.4294268 L53.4929431,14.1895969 L53.4049524,14.1895969 Z M57,3.56879057 L57,35.4294268 C57,37.3457354 55.421555,39 53.4049524,39 L3.59504757,39 C1.66643564,39 0,37.4330835 0,35.4294268 L0,3.56879057 C0,1.65248195 1.57844496,0 3.59504757,0 L53.4929431,0 C55.421555,0.0873480208 57,1.65248195 57,3.56879057 Z M42.7939953,24.8104031 L7.10210447,24.8104031 L7.10210447,21.23983 L42.7060047,21.23983 L42.7060047,24.8104031 L42.7939953,24.8104031 Z" id="icon1"></path>
                </g>
            </g>
        </g>
    </g>
</svg>