<?xml version="1.0" encoding="UTF-8"?>
<svg width="53px" height="53px" viewBox="0 0 53 53" version="1.1" xmlns="http://www.w3.org/2000/svg" xmlns:xlink="http://www.w3.org/1999/xlink">
    <!-- Generator: Sketch 51.3 (57544) - http://www.bohemiancoding.com/sketch -->
    <title>icon2</title>
    <desc>Created with Sketch.</desc>
    <defs></defs>
    <g id="Page-1" stroke="none" stroke-width="1" fill="none" fill-rule="evenodd">
        <g id="Product" transform="translate(-1489.000000, -6284.000000)">
            <g id="design4" transform="translate(-13.000000, 5890.000000)">
                <g id="Group-13" transform="translate(1500.000000, 289.000000)">
                    <g id="icon2" transform="translate(4.000000, 107.000000)">
                        <circle id="Oval-2" stroke="#4B448D" stroke-width="3.5" cx="24.5" cy="24.5" r="24.5"></circle>
                        <path d="M26.7626417,33.3367116 L26.7626417,27.8408934 C31.4764787,28.0304044 32.4174839,32.6725376 26.7626417,33.3367116 Z M22.0488048,21.3054216 C18.2794974,21.2097806 18.2794974,17.1361803 22.0488048,16.4737774 L22.0488048,21.3054216 Z M26.7626417,22.2529765 L26.7626417,16.3781364 C28.6464143,16.4737774 30.0614465,18.367116 30.1566044,20.2622257 L35.7162887,20.2622257 C35.7162887,14.5786677 30.5337113,11.1674702 26.7626417,10.9779593 L26.7626417,7 L22.0488048,7 L22.0488048,10.9779593 C20.1650322,10.9779593 13.4722648,12.96871 13.4722648,19.3146709 C13.4722648,25 18.4680509,26.5160878 21.953647,26.9889796 L21.953647,33.2428417 C19.4090561,32.4847978 18.9403157,30.683558 18.5614465,28.7902194 L13,28.7902194 C13.377107,35.4213323 19.3156604,38.3578668 22.1439626,38.8325298 L22.1439626,43 L26.8577996,43 L26.8577996,38.8325298 C31.5698743,38.6430188 36,34.9484404 36,30.0211552 C35.9048422,24.2419561 31.4764787,22.6319984 26.7626417,22.2529765 Z" id="Fill-7" fill="#4B448D"></path>
                        <path d="M26.7626417,33.3367116 L26.7626417,27.8408934 C31.4764787,28.0304044 32.4174839,32.6725376 26.7626417,33.3367116 Z M22.0488048,21.3054216 C18.2794974,21.2097806 18.2794974,17.1361803 22.0488048,16.4737774 L22.0488048,21.3054216 Z M26.7626417,22.2529765 L26.7626417,16.3781364 C28.6464143,16.4737774 30.0614465,18.367116 30.1566044,20.2622257 L35.7162887,20.2622257 C35.7162887,14.5786677 30.5337113,11.1674702 26.7626417,10.9779593 L26.7626417,7 L22.0488048,7 L22.0488048,10.9779593 C20.1650322,10.9779593 13.4722648,12.96871 13.4722648,19.3146709 C13.4722648,25 18.4680509,26.5160878 21.953647,26.9889796 L21.953647,33.2428417 C19.4090561,32.4847978 18.9403157,30.683558 18.5614465,28.7902194 L13,28.7902194 C13.377107,35.4213323 19.3156604,38.3578668 22.1439626,38.8325298 L22.1439626,43 L26.8577996,43 L26.8577996,38.8325298 C31.5698743,38.6430188 36,34.9484404 36,30.0211552 C35.9048422,24.2419561 31.4764787,22.6319984 26.7626417,22.2529765 Z" id="Stroke-8" stroke="#FFFFFF" stroke-width="0.5"></path>
                    </g>
                </g>
            </g>
        </g>
    </g>
</svg>