<?xml version="1.0" encoding="UTF-8"?>
<svg width="49px" height="47px" viewBox="0 0 49 47" version="1.1" xmlns="http://www.w3.org/2000/svg" xmlns:xlink="http://www.w3.org/1999/xlink">
    <!-- Generator: Sketch 51.3 (57544) - http://www.bohemiancoding.com/sketch -->
    <title>Group 3</title>
    <desc>Created with Sketch.</desc>
    <defs></defs>
    <g id="Page-1" stroke="none" stroke-width="1" fill="none" fill-rule="evenodd">
        <g id="Product" transform="translate(-1491.000000, -6405.000000)">
            <g id="design4" transform="translate(-13.000000, 5890.000000)">
                <g id="Group-13" transform="translate(1500.000000, 289.000000)">
                    <g id="Group-3" transform="translate(5.000000, 227.000000)">
                        <path d="M45.7448284,45 L1.25696217,45 C0.562230942,45 0,44.4503146 0,43.7671594 L0,10.2328406 C0,9.55144153 0.562230942,9 1.25696217,9 C1.9516934,9 2.5121338,9.55144153 2.5121338,10.2328406 L2.5121338,42.5360749 L45.7448284,42.5360749 C46.4395596,42.5360749 47,43.0857603 47,43.7671594 C47,44.4450461 46.4395596,45 45.7448284,45" id="Fill-9" fill="#4B448D"></path>
                        <path d="M45.7448284,45 L1.25696217,45 C0.562230942,45 0,44.4503146 0,43.7671594 L0,10.2328406 C0,9.55144153 0.562230942,9 1.25696217,9 C1.9516934,9 2.5121338,9.55144153 2.5121338,10.2328406 L2.5121338,42.5360749 L45.7448284,42.5360749 C46.4395596,42.5360749 47,43.0857603 47,43.7671594 C47,44.4450461 46.4395596,45 45.7448284,45 Z" id="Stroke-10" stroke="#4B448D" stroke-width="0.76"></path>
                        <path d="M1.2569076,32 C0.657082847,32 0.128878964,31.5719243 0.0196571436,30.9629464 C-0.102098328,30.282324 0.35448469,29.6303594 1.03667343,29.5049816 L14.3921743,27.1299676 L22.4924942,16.3403115 C22.9096858,15.7886492 23.6903532,15.674018 24.248996,16.0859737 L33.4128857,22.8886154 L44.6215512,0.691369705 C44.9331019,0.071645101 45.6904926,-0.177319408 46.3082225,0.134334006 C46.927743,0.44598742 47.1766255,1.20541873 46.8668653,1.82335222 L34.9867542,25.3549761 C34.8184452,25.6863317 34.515847,25.9263407 34.1505806,26.012314 C33.7924763,26.0982874 33.4128857,26.0176873 33.1156591,25.7973806 L23.7530215,18.8496588 L16.103913,29.0339192 C15.9141177,29.2882571 15.6347964,29.4619949 15.3196645,29.5193105 L1.47714176,31.9802978 C1.40014933,31.9946267 1.32852846,32 1.2569076,32" id="Fill-11" fill="#4B448D"></path>
                        <path d="M1.2569076,32 C0.657082847,32 0.128878964,31.5719243 0.0196571436,30.9629464 C-0.102098328,30.282324 0.35448469,29.6303594 1.03667343,29.5049816 L14.3921743,27.1299676 L22.4924942,16.3403115 C22.9096858,15.7886492 23.6903532,15.674018 24.248996,16.0859737 L33.4128857,22.8886154 L44.6215512,0.691369705 C44.9331019,0.071645101 45.6904926,-0.177319408 46.3082225,0.134334006 C46.927743,0.44598742 47.1766255,1.20541873 46.8668653,1.82335222 L34.9867542,25.3549761 C34.8184452,25.6863317 34.515847,25.9263407 34.1505806,26.012314 C33.7924763,26.0982874 33.4128857,26.0176873 33.1156591,25.7973806 L23.7530215,18.8496588 L16.103913,29.0339192 C15.9141177,29.2882571 15.6347964,29.4619949 15.3196645,29.5193105 L1.47714176,31.9802978 C1.40014933,31.9946267 1.32852846,32 1.2569076,32 Z" id="Stroke-12" stroke="#4B448D" stroke-width="0.76"></path>
                    </g>
                </g>
            </g>
        </g>
    </g>
</svg>